<svg width="218" height="218" viewBox="0 0 218 218" fill="none" xmlns="http://www.w3.org/2000/svg">
<path fill-rule="evenodd" clip-rule="evenodd" d="M79.4988 7.13864C75.4485 7.30547 72.5701 8.1804 70.1285 9.98687C67.2269 12.1336 65.4361 15.3277 64.8857 19.3376C64.6569 21.0047 64.6587 20.9093 64.6383 32.5329L64.6188 43.7091H64.4151C64.2669 43.7091 64.1968 43.7365 64.1577 43.8095C64.1223 43.8756 64.1039 44.9988 64.1039 47.095C64.1039 50.6462 64.0905 50.5109 64.4444 50.5109H64.6232V53.6002C64.6232 56.6365 64.6214 56.6896 64.5211 56.6896C64.2804 56.6896 64.2857 56.5405 64.2857 63.3356C64.2857 66.8627 64.3045 69.8368 64.3274 69.9453C64.356 70.0803 64.4092 70.1602 64.4962 70.2002L64.6232 70.2578V72.0408C64.6232 73.5788 64.6126 73.8238 64.5465 73.8238C64.5043 73.8238 64.4284 73.8872 64.3777 73.9645C64.2909 74.0969 64.2857 74.4682 64.2857 80.5716C64.2857 87.4066 64.2819 87.2981 64.5191 87.3604C64.6208 87.3869 64.6215 87.6491 64.6386 130.412C64.6519 163.628 64.6703 173.59 64.7189 174.111C64.8295 175.296 64.934 176.064 65.0894 176.837C65.9481 181.104 68.3594 184.365 72.0328 186.225C74.0323 187.237 76.141 187.733 79.1354 187.895C80.4067 187.964 137.131 187.965 138.508 187.896C142.673 187.687 145.337 186.831 147.93 184.868C148.51 184.429 149.728 183.196 150.197 182.574C151.813 180.428 152.643 178.163 153.03 174.838C153.116 174.104 153.123 171.44 153.149 128.431L153.176 82.8027L153.302 82.7399C153.372 82.7051 153.452 82.6064 153.482 82.5208C153.552 82.3172 153.589 62.9789 153.521 62.062C153.473 61.4015 153.424 61.2587 153.249 61.2587C153.155 61.2587 153.152 60.6928 153.136 41.2558C153.117 19.474 153.135 20.7854 152.84 18.9683C152.311 15.7029 151.006 13.0618 148.948 11.0867C146.804 9.02964 144.213 7.82339 140.948 7.36154C139.251 7.12135 141.096 7.13496 109.432 7.12914C93.1686 7.12613 79.6987 7.13039 79.4988 7.13864Z" fill="#656565"/>
<mask id="mask0_2034_31943" style="mask-type:alpha" maskUnits="userSpaceOnUse" x="68" y="11" width="81" height="173">
<path fill-rule="evenodd" clip-rule="evenodd" d="M126.54 11.3066C126.236 11.3464 126.023 11.4508 125.828 11.6566C125.593 11.9046 125.526 12.1921 125.474 13.1799C125.447 13.6802 125.401 14.2176 125.372 14.3742C125.181 15.3919 124.715 16.2449 123.979 16.9234C123.381 17.4738 122.609 17.8689 121.789 18.0436C121.37 18.133 120.718 18.1377 108.861 18.1377C96.861 18.1377 96.3572 18.1339 95.9581 18.0409C95.0328 17.8254 94.3851 17.4882 93.7648 16.8989C92.9463 16.1214 92.5047 15.2646 92.356 14.1657C92.3271 13.9515 92.2879 13.4376 92.269 13.0237C92.221 11.9712 92.0833 11.6446 91.5804 11.3908C91.4218 11.3108 90.9178 11.3055 85.1161 11.3237C78.4621 11.3445 78.3167 11.3493 76.8556 11.6001C73.2208 12.2238 70.6297 14.3649 69.5587 17.6296C69.1432 18.8962 68.9651 20.1357 68.8786 22.3638C68.7948 24.5203 68.8392 172.919 68.9238 173.878C69.0718 175.552 69.2375 176.49 69.566 177.512C70.2909 179.768 71.7269 181.497 73.7646 182.566C75.0303 183.23 76.3634 183.576 78.5382 183.805C79.3416 183.889 136.067 183.932 137.989 183.85C140.082 183.76 141.342 183.573 142.566 183.171C145.759 182.123 147.823 179.748 148.548 176.292C148.736 175.393 148.833 174.452 148.895 172.917C148.979 170.859 148.934 22.2254 148.849 21.279C148.644 18.977 148.36 17.7782 147.7 16.4243C147.241 15.4817 146.83 14.9075 146.063 14.137C144.929 12.9985 143.637 12.2713 141.965 11.8298C140.75 11.509 139.576 11.3769 137.34 11.3092C135.554 11.2552 126.949 11.2531 126.54 11.3066Z" fill="white"/>
</mask>
<g mask="url(#mask0_2034_31943)">
<path fill-rule="evenodd" clip-rule="evenodd" d="M68.5173 10.9465H149.256V184.106H68.5173V10.9465Z" fill="white"/>
</g>
<g filter="url(#filter0_d_2034_31943)">
<mask id="mask1_2034_31943" style="mask-type:alpha" maskUnits="userSpaceOnUse" x="84" y="31" width="50" height="50">
<circle cx="109.334" cy="55.6564" r="24.5651" fill="#FAC801"/>
</mask>
<g mask="url(#mask1_2034_31943)">
<circle cx="109.334" cy="55.6564" r="24.5651" fill="#FDB52A"/>
<g opacity="0.9">
<path d="M109.292 59.7498C114.815 59.7498 119.292 55.2726 119.292 49.7498C119.292 44.2269 114.815 39.7498 109.292 39.7498C103.769 39.7498 99.292 44.2269 99.292 49.7498C99.292 55.2726 103.769 59.7498 109.292 59.7498Z" fill="white"/>
<path d="M109.292 80.9998C115.561 80.9998 121.276 78.676 125.665 74.8635C123.176 68.2298 116.795 63.4998 109.292 63.4998C101.79 63.4998 95.4083 68.2298 92.9196 74.8635C97.3083 78.676 103.023 80.9998 109.292 80.9998Z" fill="white"/>
</g>
</g>
</g>
<rect x="78.0142" y="102.21" width="62.28" height="7.50361" rx="3.7518" fill="#3F3F3F"/>
<rect x="78.0142" y="117.968" width="62.28" height="9.75469" rx="4.87735" fill="#EDEDED"/>
<rect x="78.0142" y="150.984" width="62.28" height="11.2554" rx="5.62771" fill="#FF5634"/>
<rect x="78.0142" y="133.725" width="27.7634" height="9.00433" rx="4.50217" fill="#EDEDED"/>
<rect x="112.531" y="133.725" width="27.7634" height="9.00433" rx="4.50217" fill="#EDEDED"/>
<path d="M108.769 211C120.367 211 129.769 201.598 129.769 190C129.769 178.402 120.367 169 108.769 169C97.1711 169 87.769 178.402 87.769 190C87.769 201.598 97.1711 211 108.769 211Z" fill="#4CAF50"/>
<path d="M109.819 200.5H107.719C107.139 200.5 106.669 200.03 106.669 199.45V180.55C106.669 179.97 107.139 179.5 107.719 179.5H109.819C110.399 179.5 110.869 179.97 110.869 180.55V199.45C110.869 200.03 110.399 200.5 109.819 200.5Z" fill="white"/>
<path d="M98.269 191.05V188.95C98.269 188.371 98.7394 187.9 99.319 187.9H118.219C118.799 187.9 119.269 188.371 119.269 188.95V191.05C119.269 191.63 118.799 192.1 118.219 192.1H99.319C98.7394 192.1 98.269 191.63 98.269 191.05Z" fill="white"/>
<defs>
<filter id="filter0_d_2034_31943" x="80.769" y="31.0913" width="57.1302" height="57.1301" filterUnits="userSpaceOnUse" color-interpolation-filters="sRGB">
<feFlood flood-opacity="0" result="BackgroundImageFix"/>
<feColorMatrix in="SourceAlpha" type="matrix" values="0 0 0 0 0 0 0 0 0 0 0 0 0 0 0 0 0 0 127 0" result="hardAlpha"/>
<feOffset dy="4"/>
<feGaussianBlur stdDeviation="2"/>
<feComposite in2="hardAlpha" operator="out"/>
<feColorMatrix type="matrix" values="0 0 0 0 0 0 0 0 0 0 0 0 0 0 0 0 0 0 0.01 0"/>
<feBlend mode="normal" in2="BackgroundImageFix" result="effect1_dropShadow_2034_31943"/>
<feBlend mode="normal" in="SourceGraphic" in2="effect1_dropShadow_2034_31943" result="shape"/>
</filter>
</defs>
</svg>
